<?xml version="1.0" encoding="UTF-8" standalone="no"?>
<svg
   version="1.0"
   width="1024.000000pt"
   height="1024.000000pt"
   viewBox="0 0 1024.000000 1024.000000"
   preserveAspectRatio="xMidYMid meet"
   id="svg66"
   sodipodi:docname="logo.svg"
   inkscape:version="1.2.2 (1:1.2.2+202212051550+b0a8486541)"
   xmlns:inkscape="http://www.inkscape.org/namespaces/inkscape"
   xmlns:sodipodi="http://sodipodi.sourceforge.net/DTD/sodipodi-0.dtd"
   xmlns="http://www.w3.org/2000/svg"
   xmlns:svg="http://www.w3.org/2000/svg">
  <defs
     id="defs70" />
  <sodipodi:namedview
     id="namedview68"
     pagecolor="#ffffff"
     bordercolor="#000000"
     borderopacity="0.25"
     inkscape:showpageshadow="2"
     inkscape:pageopacity="0.0"
     inkscape:pagecheckerboard="0"
     inkscape:deskcolor="#d1d1d1"
     inkscape:document-units="pt"
     showgrid="false"
     inkscape:zoom="0.75219727"
     inkscape:cx="685.32554"
     inkscape:cy="687.98442"
     inkscape:window-width="3440"
     inkscape:window-height="1380"
     inkscape:window-x="0"
     inkscape:window-y="28"
     inkscape:window-maximized="1"
     inkscape:current-layer="svg66" />
  <g
     transform="matrix(0.09002317,0,0,-0.09002317,63.040769,986.59535)"
     fill="#000000"
     stroke="none"
     id="g64"
     style="stroke:#808080;stroke-width:219.461;stroke-dasharray:none;stroke-opacity:1">
    <path
       d="M 3995,8498 C 3350.4191,8453.5129 2676.3409,8475.1248 2088.8307,8106.2231 1744.8491,7736.5719 2050.0703,7096.437 2041.6685,6671.8847 2040.7608,5827.744 1402.8654,5300.6782 1118.7305,4546.879 874.05839,3803.3618 1203.2501,2915.2669 1874.789,2485.5708 c 784.253,-545.8235 1748.8979,-729.2399 2686.3204,-832.258 779.3641,-78.5394 1721.4061,-24.6293 2449.3318,269.4961 886.7447,288.6279 1554.7337,648.5993 1881.5164,1576.349 190.7568,520.5275 211.7539,1299.112 -47.2091,1779.5426 -175.5294,413.0642 -333.4225,1337.1713 -330.5304,1782.4379 -44.9081,455.0286 225.214,416.8213 83.8141,864.1824 -495.947,541.445 -1290.0523,561.392 -1973.0977,573.9718 C 5748.3082,8508.0682 4871.6361,8500.8793 3995,8498 Z m 2408.6773,-327.6939 c 517.2049,-14.7455 935.5178,-72.1054 1486.8312,-168.6578 440.9397,-93.1845 268.1049,-484.0571 -0.5929,-518.5304 -1562.7275,125.1419 -3523.2372,110.3049 -5090.8953,106.9593 -341.0115,223.9886 -162.6758,378.6227 78.6359,492.633 491.8428,84.4896 709.88,85.3789 1208.0395,110.4431 711.7098,15.905 1606.2474,-32.3437 2317.9816,-22.8472 z M 3100.8861,7230.3292 c 1306.4256,-33.1688 2535.4146,-111.5502 3841.4998,-158.1699 415.3506,-9.515 979.3258,-118.4694 1081.2825,-350.4279 35.6381,-455.7586 142.9899,-999.2903 265.2725,-1474.4723 97.4037,-535.0147 435.2122,-986.2753 132.1693,-1564.289 C 8044.0793,2831.5846 7582.4575,2647.1293 6754.1939,2371.4185 6035.3541,2119.2459 4922.7675,2005.5257 4177.6998,2190.9138 c -641.0937,108.8648 -1205.2403,212.696 -1744.7252,592.2563 -447.7138,183.2273 -854.1272,643.609 -835.7572,1142.5629 -47.7337,733.9913 477.9776,1258.4329 769.2717,1878.5641 163.7978,612.7524 88.7452,192.193 275.4728,1084.8807 58.2752,365.9933 634.0095,347.8761 458.9242,341.1514 z"
       id="path62"
       sodipodi:nodetypes="cccccccccccccccccccccccccccccccc"
       style="fill:#808080;stroke:#808080;stroke-width:219.461;stroke-dasharray:none;stroke-opacity:1" />
  </g>
</svg>
