<?xml version="1.0" standalone="no"?>
<!DOCTYPE svg PUBLIC "-//W3C//DTD SVG 20010904//EN"
 "http://www.w3.org/TR/2001/REC-SVG-20010904/DTD/svg10.dtd">
<svg version="1.0" xmlns="http://www.w3.org/2000/svg"
 width="700.000000pt" height="700.000000pt" viewBox="0 0 700.000000 700.000000"
 preserveAspectRatio="xMidYMid meet">
<metadata>
Created by potrace 1.14, written by Peter Selinger 2001-2017
</metadata>
<g transform="translate(0.000000,700.000000) scale(0.100000,-0.100000)"
fill="#000000" stroke="none">
<path d="M3475 5813 c-11 -1 -227 -4 -480 -7 -253 -2 -480 -7 -505 -9 -25 -3
-92 -8 -150 -11 -58 -4 -118 -8 -135 -11 -16 -2 -52 -7 -80 -10 -27 -3 -61 -7
-75 -10 -14 -2 -41 -6 -60 -9 -165 -24 -403 -108 -534 -189 -84 -53 -137 -180
-138 -337 -1 -111 4 -148 43 -372 31 -175 40 -300 28 -402 -30 -249 -94 -399
-342 -808 -288 -474 -340 -617 -333 -908 2 -74 7 -148 10 -165 35 -169 66
-262 126 -380 124 -244 307 -424 602 -593 154 -88 454 -222 498 -222 9 0 20
-4 26 -8 14 -13 241 -80 364 -107 37 -8 177 -37 195 -40 205 -38 500 -79 660
-92 185 -16 690 -9 850 12 38 5 111 15 150 21 160 24 392 82 520 130 39 14
104 37 145 51 423 141 726 319 925 545 164 186 304 471 351 713 2 11 6 31 9
45 11 51 13 69 21 146 5 43 8 135 8 204 0 244 -31 406 -113 590 -41 90 -89
238 -116 355 -23 100 -52 243 -59 290 -4 23 -8 52 -11 65 -31 162 -52 372 -55
555 -2 127 4 161 46 263 40 96 47 160 27 249 -13 56 -20 68 -74 117 -72 67
-121 101 -220 154 -148 79 -373 139 -589 157 -41 4 -86 9 -100 11 -54 10
-1358 25 -1435 17z m115 -307 c80 -4 327 -8 550 -11 464 -6 845 -14 910 -20
92 -8 144 -14 184 -20 23 -4 55 -9 71 -11 181 -27 283 -131 230 -233 -22 -43
-72 -80 -118 -88 -23 -4 -45 -6 -48 -5 -4 0 -51 4 -105 7 -55 3 -117 8 -139
10 -22 2 -103 7 -180 10 -77 4 -169 8 -205 10 -60 3 -191 8 -570 21 -80 3
-622 7 -1205 11 l-1060 5 -52 40 c-56 43 -93 93 -93 125 0 27 34 56 100 86 57
26 86 33 185 42 33 3 80 8 105 10 25 3 189 7 365 11 176 3 321 7 322 8 5 4
599 -2 753 -8z m-920 -581 c109 -4 383 -16 470 -20 41 -2 143 -7 225 -10 83
-3 182 -7 220 -10 39 -2 133 -7 210 -10 77 -3 178 -8 225 -10 109 -6 285 -13
700 -30 74 -3 155 -8 180 -10 99 -12 126 -15 150 -20 14 -3 35 -7 48 -10 122
-23 262 -77 323 -126 53 -42 66 -70 73 -159 5 -67 10 -108 21 -175 1 -11 6
-42 9 -70 4 -27 9 -61 12 -75 3 -14 8 -36 10 -50 5 -29 23 -124 30 -160 3 -14
14 -67 25 -119 12 -51 22 -101 24 -110 17 -85 91 -364 124 -467 72 -226 83
-280 86 -409 4 -155 -13 -222 -104 -408 -184 -380 -379 -563 -766 -721 -342
-139 -743 -246 -1055 -281 -30 -4 -68 -8 -85 -10 -255 -31 -647 -21 -855 20
-33 7 -177 33 -215 40 -16 2 -41 7 -55 10 -14 3 -52 10 -85 16 -100 17 -345
78 -430 105 -164 54 -329 131 -465 218 -36 23 -83 50 -105 60 -106 50 -249
162 -340 267 -54 61 -122 186 -151 276 -27 82 -29 99 -29 243 0 199 8 245 67
410 43 119 103 235 232 450 175 291 216 371 240 460 10 36 33 112 51 170 27
85 85 329 110 460 13 72 19 88 41 127 38 65 83 95 224 147 13 5 391 -1 610 -9z"/>
</g>
</svg>
